<?xml version="1.0" encoding="utf-8"?>
<!-- Generator: Adobe Illustrator 24.0.1, SVG Export Plug-In . SVG Version: 6.00 Build 0)  -->
<svg version="1.1" id="Layer_1" xmlns="http://www.w3.org/2000/svg" xmlns:xlink="http://www.w3.org/1999/xlink" x="0px" y="0px"
	 viewBox="0 0 661 370.61" style="enable-background:new 0 0 661 370.61;" xml:space="preserve">
<style type="text/css">
	.st0{fill:#004278;}
	.st1{fill:#0D131A;}
	.st2{fill:#60C0BD;}
	.st3{fill:#A0D7E5;}
	.st4{fill:#82CBD1;}
	.st5{fill:#D2ECFA;}
	.st6{fill:#52A7A5;}
	.st7{fill:#BBE2F1;}
	.st8{fill:#EB6D80;}
	.st9{fill:#F6C7CE;}
	.st10{fill:#F3B1B9;}
	.st11{fill:#F09BA5;}
	.st12{fill:#CB5E71;}
	.st13{fill:#EEEEEF;}
	.st14{fill:#FFFFFF;}
	.st15{fill:#DBDCDC;}
</style>
<g>
	<path class="st0" d="M47.61,362.29h-1.68L9.27,306.33v55.96H7.59v-58.98h1.68l36.66,55.88v-55.88h1.68V362.29z"/>
	<path class="st0" d="M98.58,359.15c-4.28-2.54-7.62-6.11-10.03-10.7c-2.41-4.59-3.61-9.79-3.61-15.61c0-5.82,1.2-11.02,3.61-15.61
		c2.4-4.59,5.75-8.15,10.03-10.7c4.28-2.54,9.13-3.82,14.56-3.82c5.42,0,10.28,1.27,14.56,3.82c4.28,2.55,7.62,6.11,10.03,10.7
		c2.4,4.59,3.61,9.79,3.61,15.61c0,5.82-1.2,11.02-3.61,15.61c-2.41,4.59-5.75,8.15-10.03,10.7c-4.28,2.55-9.13,3.82-14.56,3.82
		C107.71,362.97,102.86,361.69,98.58,359.15z M126.56,357.97c4.03-2.32,7.2-5.65,9.52-9.98c2.32-4.33,3.48-9.38,3.48-15.14
		c0-5.76-1.16-10.81-3.48-15.14c-2.32-4.33-5.5-7.66-9.52-9.98c-4.03-2.32-8.5-3.48-13.42-3.48c-4.92,0-9.4,1.16-13.42,3.48
		c-4.03,2.32-7.2,5.65-9.52,9.98c-2.32,4.33-3.48,9.38-3.48,15.14c0,5.76,1.16,10.81,3.48,15.14c2.32,4.33,5.5,7.66,9.52,9.98
		c4.03,2.32,8.5,3.48,13.42,3.48C118.06,361.46,122.53,360.3,126.56,357.97z"/>
	<path class="st0" d="M209.28,303.23v1.51h-17.2v57.55h-1.68v-57.55h-17.2v-1.51H209.28z"/>
	<path class="st0" d="M321.62,303.23v1.51h-27.18v27.27h24.67v1.51h-24.67v28.78h-1.68v-59.06H321.62z"/>
	<path class="st0" d="M368.81,359.15c-4.28-2.54-7.62-6.11-10.03-10.7c-2.41-4.59-3.61-9.79-3.61-15.61c0-5.82,1.2-11.02,3.61-15.61
		c2.4-4.59,5.75-8.15,10.03-10.7c4.28-2.54,9.13-3.82,14.56-3.82c5.42,0,10.28,1.27,14.56,3.82c4.28,2.55,7.62,6.11,10.03,10.7
		c2.4,4.59,3.61,9.79,3.61,15.61c0,5.82-1.2,11.02-3.61,15.61c-2.41,4.59-5.75,8.15-10.03,10.7c-4.28,2.55-9.13,3.82-14.56,3.82
		C377.94,362.97,373.09,361.69,368.81,359.15z M396.79,357.97c4.03-2.32,7.2-5.65,9.52-9.98c2.32-4.33,3.48-9.38,3.48-15.14
		c0-5.76-1.16-10.81-3.48-15.14c-2.32-4.33-5.49-7.66-9.52-9.98c-4.03-2.32-8.5-3.48-13.42-3.48c-4.92,0-9.4,1.16-13.42,3.48
		c-4.03,2.32-7.2,5.65-9.52,9.98c-2.32,4.33-3.48,9.38-3.48,15.14c0,5.76,1.16,10.81,3.48,15.14c2.32,4.33,5.5,7.66,9.52,9.98
		c4.03,2.32,8.5,3.48,13.42,3.48C388.29,361.46,392.76,360.3,396.79,357.97z"/>
	<path class="st0" d="M450.15,303.23v36.66c0,7.5,1.64,12.95,4.91,16.36c3.27,3.41,7.7,5.12,13.3,5.12c5.48,0,9.82-1.71,13-5.12
		c3.19-3.41,4.78-8.86,4.78-16.36v-36.66h1.68v36.66c0,7.83-1.72,13.62-5.16,17.37c-3.44,3.75-8.21,5.62-14.3,5.62
		c-6.1,0-10.94-1.89-14.51-5.66c-3.58-3.78-5.37-9.55-5.37-17.33v-36.66H450.15z"/>
	<path class="st0" d="M566.85,362.29h-1.68l-36.66-55.96v55.96h-1.68v-58.98h1.68l36.66,55.88v-55.88h1.68V362.29z"/>
	<path class="st0" d="M645.04,310.95c5.31,5.15,7.97,12.42,7.97,21.81c0,9.4-2.66,16.67-7.97,21.81
		c-5.31,5.15-13.06,7.72-23.24,7.72h-15.52v-59.06h15.52C631.98,303.23,639.73,305.8,645.04,310.95z M643.87,353.4
		c4.98-4.92,7.47-11.8,7.47-20.64c0-8.84-2.49-15.72-7.47-20.64c-4.98-4.92-12.33-7.38-22.07-7.38h-13.84v56.04h13.84
		C631.54,360.78,638.89,358.32,643.87,353.4z"/>
</g>
<g>
	<path class="st0" d="M7.59,208.39v-29.95l117-167.84h48.06v163.32h32.38v34.47h-32.38v52.93h-39v-52.93H7.59z M135.39,50.99
		L53.21,173.92h82.18V50.99z"/>
	<path class="st0" d="M258.14,36.89C271.72,14.25,295.1,2.94,328.3,2.94c33.2,0,56.59,11.32,70.17,33.95
		c13.58,22.63,20.37,54.03,20.37,94.19c0,40.63-6.79,72.38-20.37,95.24c-13.58,22.87-36.97,34.3-70.17,34.3
		c-33.2,0-56.59-11.43-70.17-34.3c-13.58-22.86-20.37-54.61-20.37-95.24C237.76,90.92,244.55,59.52,258.14,36.89z M376.18,83.38
		c-2.44-13-7.37-23.62-14.8-31.86c-7.43-8.24-18.46-12.36-33.08-12.36s-25.65,4.12-33.08,12.36c-7.43,8.24-12.36,18.86-14.8,31.86
		c-2.44,13-3.66,28.9-3.66,47.71c0,19.5,1.16,35.87,3.48,49.1c2.32,13.23,7.25,23.91,14.8,32.04c7.54,8.13,18.63,12.19,33.26,12.19
		s25.71-4.06,33.26-12.19c7.54-8.12,12.48-18.8,14.8-32.04c2.32-13.23,3.48-29.6,3.48-49.1C379.84,112.28,378.62,96.38,376.18,83.38
		z"/>
	<path class="st0" d="M456.1,208.39v-29.95l117-167.84h48.06v163.32h32.38v34.47h-32.38v52.93h-39v-52.93H456.1z M583.9,50.99
		l-82.18,122.92h82.18V50.99z"/>
</g>
<g>
	<path class="st1" d="M442.12,83.63c0.19,0.16,0.63,1.51,1.31,4.04l-44.47,93.06l-20.77,4.08l-4.81-33.74l31.54-33.78l31.74-33.86
		c0.14-0.08,1.03-0.1,2.69-0.04L442.12,83.63"/>
	<path class="st2" d="M441.5,84.61l0.73,2.77l-41.61,85.26l-19.58,8.77l-5.83-29.09l62.3-67.97L441.5,84.61"/>
	<path class="st3" d="M437.51,84.36l4,0.24l0.73,2.77l-14.4,29.54c-1.39-0.16-3.15,0.35-5.3,1.55c-1.93,1.09-3.28,2.18-4.04,3.26
		l5.3-22.36L437.51,84.36"/>
	<path class="st4" d="M437.51,84.36l1.47,0.08c0.44,0.35,0.68,0.8,0.73,1.35c0.08,0.6-0.07,1.13-0.45,1.59l-56.01,93.06l-2.2,0.98
		l-5.83-29.09L437.51,84.36"/>
	<path class="st5" d="M437.51,84.36l1.47,0.08c0.44,0.35,0.68,0.8,0.73,1.35c0.08,0.6-0.07,1.13-0.45,1.59l-15.58,25.86l-0.29-0.12
		c-0.84-0.63-4.34,0.76-10.48,4.16c-5.66,3.15-10.16,6.04-13.5,8.65L437.51,84.36"/>
	<path class="st1" d="M438.32,88.24c0.41-0.68,0.69-0.94,0.86-0.78s0.05,0.57-0.33,1.22l-51.16,85.3c-0.19,0.3-0.45,0.49-0.78,0.57
		l-0.94-0.16c-0.3-0.19-0.49-0.45-0.57-0.78c-0.08-0.33-0.03-0.64,0.16-0.94L438.32,88.24"/>
	<path class="st1" d="M285.21,170.69l22.8,6.85l12.73,29.86c-1.55,8-2.65,12.27-3.3,12.81c-0.71,0.54-8.32,2.8-22.85,6.77l-22.48,6
		c-16.29,3.26-24.61,4.8-24.97,4.61c-0.35-0.16-1.73-1.71-4.12-4.65c-2.42-2.96-3.64-4.61-3.67-4.94c-0.08-0.41,1.55-5.41,4.9-15.01
		c3.32-9.52,5.11-14.46,5.39-14.81C250.08,197.58,261.93,188.42,285.21,170.69"/>
	<path class="st3" d="M281.75,176.48l7.14,4.41l-26.11,38.47l-20.23,8.28c-0.46,0.22-0.69-0.01-0.69-0.69l0.33-1.63l9.59-26.03
		L281.75,176.48"/>
	<path class="st2" d="M263.23,221.11c0.14,0.05,1.33,1.67,3.59,4.85l3.35,4.81l-11.1,2.53l-11.1,2.33l-5.1-6.32l10.04-4.12
		C259.65,222.44,263.09,221.08,263.23,221.11"/>
	<path class="st6" d="M316.18,218.74c-0.52,0.49-7.89,2.57-22.11,6.24c-14.06,3.64-21.31,5.43-21.74,5.34l-7.67-10.04
		c-0.03-0.19,8.51-12.85,25.62-37.98l28.31,25.29C317.25,214.76,316.45,218.47,316.18,218.74"/>
	<path class="st1" d="M298.51,205.36l-18.36-23.54c-11.99-15.53-17.99-23.65-17.99-24.36c0-0.98,6.94-8.92,20.81-23.82
		c13.57-14.6,20.75-22.14,21.54-22.6c0.76-0.41,11.01-0.45,30.76-0.12c0.52,0.03,1.02,0.26,1.51,0.69l1.1,1.14l24.84,21.34
		c16.26,14.09,24.49,21.61,24.68,22.56c0.16,0.71-1.1,6.95-3.79,18.73l-4.08,17.46l-25.66,22.85c-0.35,0.27-1.43,0.71-3.22,1.31
		c-1.85,0.65-2.98,0.92-3.39,0.82l-45.53-10.36C300.43,207.09,299.36,206.4,298.51,205.36"/>
	<path class="st5" d="M306.31,112.51l9.26-0.24c5.98-0.11,9.04-0.12,9.18-0.04s1.97,3.43,5.51,10.04c3.56,6.58,5.33,9.95,5.3,10.12
		l-5.18,7.79l-5.14,7.67c-0.16,37.51-0.3,56.3-0.41,56.38l-11.59,0.16l-11.91,0.12c-0.57,0-1.02-0.24-1.35-0.73l-34.96-45.73V158
		l-0.04-0.04c-0.24-0.35-0.19-0.78,0.16-1.26l39.78-43.73C305.19,112.66,305.65,112.51,306.31,112.51"/>
	<path class="st4" d="M301.45,131.16c9.08-5.22,18.43-8.66,28.03-10.32c4.05,7.42,6.08,11.27,6.08,11.55
		c-0.03,0.22-3.41,5.29-10.16,15.22l-54.05,7.87C281.43,145,291.47,136.89,301.45,131.16"/>
	<path class="st5" d="M306.31,112.51l9.26-0.24c5.98-0.11,9.04-0.12,9.18-0.04c0.19,0.14,1.77,3.01,4.73,8.61
		c-9.6,1.66-18.94,5.1-28.03,10.32c-9.98,5.74-20.02,13.84-30.11,24.31l-6.49,1.84l0.29-0.61l39.78-43.73
		C305.19,112.66,305.65,112.51,306.31,112.51"/>
	<path class="st2" d="M299.98,203.77l-22.07-28.84c4.19-9.93,10.21-17.61,18.07-23.05l29.41-4.28l-0.16,0.24
		c-0.16,37.51-0.3,56.3-0.41,56.38l-11.59,0.16l-11.91,0.12C300.76,204.51,300.31,204.26,299.98,203.77"/>
	<path class="st7" d="M264.86,157.31l6.49-1.84l24.64-3.59c-7.86,5.44-13.88,13.12-18.07,23.05l-12.89-16.89V158l-0.04-0.04
		C264.84,157.79,264.8,157.58,264.86,157.31"/>
	<path class="st8" d="M328.38,112.67l3.47,0.49l2.9,0.53l1.18,0.16c0.54,0.08,0.9,0.22,1.06,0.41l46.87,41.41
		c0.71,0.68,0.94,1.54,0.69,2.57l-6.61,32.15c-0.14,0.68-0.49,1.35-1.06,2c-15.8,14.58-23.81,21.87-24.03,21.87l-12.36-4.53
		l-12.4-4.77l-0.78-0.57c-0.16-0.24-0.23-0.63-0.2-1.14l0.45-53.77c0-0.49,0.2-1.14,0.61-1.96l4.37-6.61l4.65-6.77
		c0.57-0.6,0.87-1.13,0.9-1.59c0-0.41-0.22-1.03-0.65-1.88l-9.63-17.3C327.56,112.91,327.75,112.67,328.38,112.67"/>
	<path class="st9" d="M327.56,149.47l0.33-1.22l35.29,5.59v0.37c-6.99-1.44-14.07-0.05-21.25,4.16
		c-6.99,4.11-11.83,9.45-14.52,16.03L327.56,149.47"/>
	<path class="st10" d="M334.82,125.97c0.41-1.74,1.55-3.21,3.43-4.41c1.52-0.98,3.15-1.58,4.9-1.8l40.71,35.9l0.33,0.37l0.24,0.41
		l0.04,0.08l0.08,0.33l0.04,0.04l0.04,0.33l-56.75-8.98l0.29-0.73l4.53-6.85l4.49-6.53c0.52-0.71,0.79-1.26,0.82-1.67
		s-0.16-1.01-0.57-1.8L334.82,125.97"/>
	<path class="st11" d="M328.38,112.67l6.36,1.02l1.18,0.16c0.54,0.08,0.9,0.22,1.06,0.41l0.98,0.9l0.12,0.08l5.06,4.53
		c-1.74,0.22-3.37,0.82-4.9,1.8c-1.88,1.2-3.02,2.67-3.43,4.41l-7.02-12.61l-0.29-0.78L328.38,112.67"/>
	<path class="st1" d="M269.39,155.39l50.59-8c1.66-0.3,2.53-0.2,2.61,0.29c0.08,0.52-0.68,0.99-2.28,1.43
		c-3.29,0.9-20.21,3.49-50.75,7.79c-1.2,0.16-1.82,0-1.88-0.49C267.62,155.89,268.19,155.55,269.39,155.39"/>
	<path class="st1" d="M381.94,157.18l-49.28-7.47c-1.39-0.3-1.99-0.68-1.8-1.14c0.16-0.46,0.88-0.63,2.16-0.49l49.08,8.12
		c1.03,0.16,1.46,0.39,1.26,0.69C383.18,157.17,382.7,157.26,381.94,157.18"/>
	<path class="st12" d="M347.75,216.09l-42.18-9.42l19.99-0.49c0.33,0,8.39,3.1,24.19,9.3L347.75,216.09"/>
	<path class="st1" d="M419.39,188.76l7.79,15.3c4.84,9.71,7.26,14.75,7.26,15.14c0,0.33-1.62,1.63-4.85,3.92
		c-3.13,2.23-4.83,3.37-5.1,3.43l-21.87-2.73l-22.03-2.94c-25.73-9.22-38.91-14.13-39.53-14.73c-0.35-0.35-0.97-3.82-1.84-10.4
		c-0.84-6.66-1.07-10.23-0.69-10.69c0.24-0.33,9.87-4.15,28.88-11.46c18.98-7.29,28.61-10.91,28.88-10.85
		c0.22,0.03,4.03,4.24,11.42,12.65L419.39,188.76"/>
	<path class="st3" d="M379.45,202.1l-38.51-16.16l54.79-20.85l20.44,23.74L379.45,202.1"/>
	<path class="st5" d="M405.11,175.99c-10.91-0.27-20.94,1.13-30.11,4.2c-9.11,3.02-15.46,7.04-19.05,12.08l-15.01-6.32l54.79-20.85
		L405.11,175.99"/>
	<path class="st2" d="M343.02,204.75l-2.2-16.77l37.78,15.79l0.86,14.73L343.02,204.75"/>
	<path class="st4" d="M348.45,206.79l-5.43-2.04l-2.2-16.77l19.01,7.96c-4.08,0.95-7.18,2.38-9.3,4.28
		C348.24,202.24,347.55,204.42,348.45,206.79"/>
	<path class="st2" d="M380.55,203.85l36.88-13.14l14.6,28.19l-8.04,5.39l-42.63-5.34L380.55,203.85"/>
	<path class="st1" d="M325.97,111.61l0.33,31.62c0.03,1.06-0.14,1.59-0.49,1.59c-0.33,0-0.5-0.53-0.53-1.59l-1.31-31.74
		c0-0.22,0.33-0.3,0.98-0.24C325.63,111.27,325.97,111.4,325.97,111.61"/>
	<path class="st8" d="M292.31,87.91l-45.73,1.8l34.88-27.5l37.25-16.07l42.35,3.14l15.38,24.48l-10.04,32.72l-50.71,10.44
		l-52.63-2.08l37.94-0.69l-2.9-17.42L292.31,87.91"/>
	<path class="st13" d="M339.6,61.76l9.38,14.48l-29.25,11.5l-0.9,0.73l-4.28-13.05l24.68-12.81L339.6,61.76"/>
	<path class="st14" d="M339.6,61.76l-0.37,0.86l-24.68,12.81l7.1-12.28L339.6,61.76"/>
	<path class="st15" d="M319.73,87.75l29.25-11.5l-11.5,15.91l-18.64-3.67L319.73,87.75"/>
	<path class="st2" d="M228.22,104.39l18.64-15.05l45.45-1.43l5.79,8.81l2.9,17.42l-51.4,0.65l-21.13-5.43L228.22,104.39"/>
	<path class="st4" d="M298.11,96.72l-30.72,12.03l-0.41-6.69l25.62-14.36L298.11,96.72"/>
	<path class="st3" d="M266.98,102.07l-38.76,2.33l18.64-15.05l45.45-1.43L266.98,102.07"/>
	<path class="st10" d="M281.46,62.21l37.25-16.07l42.35,3.14l-21.66,12.28l-17.79,1.59l-7.18,12.69l-22.11,12.08l-45.73,1.8
		L281.46,62.21"/>
	<path class="st9" d="M247.11,89.42l34.35-27.21l37.25-16.07l42.35,3.14l-42.18,2.28l-35.45,16.28l-32.56,21.54L247.11,89.42"/>
	<path class="st5" d="M250.86,89.38l-22.64,15.01l18.89-14.97L250.86,89.38"/>
	<path class="st11" d="M292.31,87.91l22.11-12.08l4.41,12.65l-20.72,8.24L292.31,87.91"/>
	<path class="st11" d="M348.77,75.96l-9.38-14.4l21.87-12.36l15.42,24.93L348.77,75.96"/>
	<path class="st6" d="M300.1,113.98l-50.51,0.82l-21.13-5.43l38.39-0.53L300.1,113.98"/>
	<path class="st12" d="M300.47,114.1l13.1,2.57l-43.45-1.39L300.47,114.1"/>
	<path class="st1" d="M229.24,109.04l20.44,4.81l65.76,2.12l50.02-10.2l10.12-31.49l-14.93-24.48l-41.77-2.53l-36.88,15.67
		l-52.87,41.65L229.24,109.04 M227.94,103.41l53.12-41.98l36.55-15.83l2.04-0.24l40.96,2.98l1.02,0.2l0.57,0.61l15.05,24.15
		c0.22,0.35,0.24,0.86,0.08,1.51l-9.91,31.86c-0.22,0.63-0.56,0.99-1.02,1.1l-50.14,9.95l-1.18,0.04l-65.68-2.16l-21.09-5.22
		c-0.44-0.11-0.67-0.38-0.69-0.82l-0.16-4.81C227.42,104.13,227.58,103.69,227.94,103.41"/>
	<path class="st1" d="M348.08,75.1l28.31-1.67l0.04,1.75l-27.58,1.67L348.08,75.1"/>
	<path class="st1" d="M228.39,103.86l38.43-2.65l47.4-26.64l0.2,1.92l-47.16,26.31l-0.16,0.04l-38.92,2.45L228.39,103.86"/>
	<path class="st1" d="M336.29,62.37l23.95-13.59l1.63,1.31l-21.5,12.08L336.29,62.37"/>
	<path class="st1" d="M331.44,63.35l-9.3,1.02c-1.52,2.42-3.73,6.24-6.61,11.46l2.73,8l1.47,3.92l17.58,3.26l5.43-7.22l5.43-7.26
		l-4.49-6.98l-4.45-6.94L331.44,63.35 M320.95,62.66l0.65-0.16l17.5-1.63c0.46-0.11,0.83-0.05,1.1,0.16l9.51,14.81
		c0.3,0.27,0.37,0.57,0.2,0.9l-11.34,15.95c-0.16,0.35-0.52,0.49-1.06,0.41l-18.6-3.79c-0.44-0.11-0.68-0.38-0.73-0.82l-4.61-12.65
		l6.85-12.52L320.95,62.66"/>
	<path class="st1" d="M300.1,113.98l-3.02-17.09l-5.1-8.2l-46.26,1.75l1.75-1.55l45.69-2.04c0.38,0,0.67,0.16,0.86,0.49l4.85,8.77
		l0.04,0.12l3.02,18.11L300.1,113.98"/>
	<path class="st1" d="M268.24,108.35l50.18,7.96l-5.34,0.53l-45.73-7.06c-0.49-0.05-0.76-0.41-0.82-1.06l-0.16-6.65l1.59-0.45
		L268.24,108.35"/>
	<path class="st1" d="M305,114.84L256.66,115l-6.98-1.14l46.87-0.33L305,114.84"/>
	<path class="st1" d="M228.18,108.76l39.08-0.61l51.4-20.68l1.47,1.51l-52.79,20.81l-0.16,0.04l-38.06,0.29L228.18,108.76"/>
	<path class="st1" d="M330.25,72.9c0.9,0.05,1.62,0.37,2.16,0.94c0.63,0.63,0.95,1.48,0.98,2.57c0.03,0.87-0.26,1.65-0.86,2.33
		c-0.63,0.68-1.35,1.02-2.16,1.02c-1.01,0-1.82-0.29-2.45-0.86c-0.65-0.63-0.99-1.5-1.02-2.61c-0.03-0.92,0.34-1.74,1.1-2.45
		C328.72,73.16,329.46,72.84,330.25,72.9"/>
</g>
<path class="st0" d="M398.47,36.89c-13.42-22.36-36.42-33.67-68.99-33.94v36.22c14.04,0.22,24.68,4.33,31.91,12.34
	c7.43,8.24,12.36,18.86,14.8,31.86c2.44,13,3.66,28.9,3.66,47.71c0,19.5-1.17,35.87-3.48,49.1c-2.32,13.23-7.26,23.91-14.8,32.04
	c-7.34,7.91-18.04,11.95-32.08,12.17v36.22c32.57-0.27,55.57-11.69,68.99-34.29c13.58-22.86,20.37-54.61,20.37-95.24
	C418.84,90.92,412.05,59.52,398.47,36.89z"/>
</svg>
