<?xml version="1.0" encoding="utf-8"?>
<!-- Generator: Adobe Illustrator 24.0.1, SVG Export Plug-In . SVG Version: 6.00 Build 0)  -->
<svg version="1.1" id="Layer_1" xmlns="http://www.w3.org/2000/svg" xmlns:xlink="http://www.w3.org/1999/xlink" x="0px" y="0px"
	 viewBox="0 0 32 32" style="enable-background:new 0 0 32 32;" xml:space="preserve">
<style type="text/css">
	.st0{fill:#FFFFFF;}
</style>
<path class="st0" d="M20.8,16.1c0,2.6-2.2,4.7-4.8,4.7c-2.7,0-4.8-2.1-4.8-4.7c0-0.5,0.1-0.9,0.2-1.3l-1.2-0.3v6.8
	c0,0.3,0.1,0.5,0.5,0.5h10.7c0.3,0,0.5-0.1,0.5-0.5v-6.8l-1.2,0.3C20.8,15.2,20.8,15.7,20.8,16.1z"/>
<ellipse class="st0" cx="16" cy="16" rx="3.1" ry="3"/>
<path class="st0" d="M16,0C7.2,0,0,7.2,0,16s7.2,16,16,16s16-7.2,16-16S24.8,0,16,0z M23.8,21.8c0,1.1-0.8,1.9-1.9,1.9
	c0,0,0,0-0.1,0H10.2c-1.1,0-1.9-0.8-1.9-1.9c0,0,0,0,0-0.1V10.2c0-1.1,0.8-1.9,1.9-1.9h11.7c1.1,0,1.9,0.8,1.9,1.9
	C23.8,10.2,23.8,21.8,23.8,21.8z"/>
<path class="st0" d="M21.3,10.2h-1.9c-0.3,0-0.5,0.2-0.5,0.5c0,0,0,0,0,0v1.9c0,0.3,0.2,0.5,0.5,0.5h1.9c0.3,0,0.5-0.2,0.5-0.5
	c0,0,0,0,0,0v-1.9C21.8,10.4,21.6,10.2,21.3,10.2z"/>
</svg>
