<?xml version="1.0" encoding="utf-8"?>
<!-- Generator: Adobe Illustrator 24.0.1, SVG Export Plug-In . SVG Version: 6.00 Build 0)  -->
<svg version="1.1" id="Layer_1" xmlns="http://www.w3.org/2000/svg" xmlns:xlink="http://www.w3.org/1999/xlink" x="0px" y="0px"
	 viewBox="0 0 32 32" style="enable-background:new 0 0 32 32;" xml:space="preserve">
<style type="text/css">
	.st0{fill:#FFFFFF;}
</style>
<path class="st0" d="M16,0C7.2,0,0,7.2,0,16s7.2,16,16,16s16-7.2,16-16S24.8,0,16,0z M24.4,10.9c-0.1,0.1-0.5,0.6-0.9,1
	c-0.7,0.7-0.7,0.8-0.7,1.3c0,0.9-0.4,2.7-0.8,3.7c-0.8,1.9-2.4,3.8-4.1,4.8c-2.3,1.4-5.4,1.7-8.1,0.9c-0.9-0.3-2.4-1-2.4-1.1
	c0,0,0.5-0.1,1-0.1c1.2,0,2.3-0.3,3.3-0.9l0.7-0.4l-0.8-0.3c-1.1-0.4-2.1-1.2-2.3-2c-0.1-0.3,0-0.3,0.6-0.3l0.7,0l-0.6-0.3
	c-0.7-0.4-1.4-1-1.7-1.6C8.2,15.2,7.9,14.1,8,14c0,0,0.3,0,0.6,0.1c0.8,0.3,1,0.2,0.5-0.3c-0.9-0.9-1.2-2.3-0.8-3.7l0.2-0.6l0.8,0.8
	c1.7,1.6,3.6,2.6,5.8,2.9l0.6,0.1l0-0.6c-0.1-1.6,0.9-3,2.4-3.6c0.6-0.2,1.5-0.2,2.1-0.1c0.2,0.1,0.7,0.3,1,0.5l0.6,0.4l0.7-0.2
	c0.4-0.1,0.9-0.3,1.1-0.4c0.2-0.1,0.4-0.2,0.4-0.1c0,0.2-0.5,0.9-0.8,1.3c-0.5,0.6-0.4,0.6,0.7,0.2C24.5,10.6,24.6,10.6,24.4,10.9z"
	/>
</svg>
