<?xml version="1.0" encoding="utf-8"?>
<!-- Generator: Adobe Illustrator 24.0.1, SVG Export Plug-In . SVG Version: 6.00 Build 0)  -->
<svg version="1.1" id="Layer_1" xmlns="http://www.w3.org/2000/svg" xmlns:xlink="http://www.w3.org/1999/xlink" x="0px" y="0px"
	 viewBox="0 0 32 32" style="enable-background:new 0 0 32 32;" xml:space="preserve">
<style type="text/css">
	.st0{fill:#FFFFFF;}
</style>
<path class="st0" d="M13.8,19.3l5.4-3.3l-5.4-3.3L13.8,19.3z"/>
<path class="st0" d="M16,0C7.2,0,0,7.2,0,16s7.2,16,16,16s16-7.2,16-16S24.8,0,16,0z M24.7,16.7c0,1.5-0.2,3-0.2,3s-0.2,1.3-0.7,1.8
	c-0.7,0.7-1.4,0.7-1.7,0.8c-2.4,0.2-6.1,0.2-6.1,0.2s-4.5,0-5.9-0.2c-0.4-0.1-1.3-0.1-1.9-0.8c-0.5-0.6-0.7-1.8-0.7-1.8
	s-0.2-1.5-0.2-3v-1.4c0-1.5,0.2-3,0.2-3s0.2-1.3,0.7-1.8c0.7-0.7,1.4-0.7,1.7-0.8C12.3,9.5,16,9.5,16,9.5h0c0,0,3.6,0,6.1,0.2
	c0.3,0,1.1,0,1.7,0.8c0.5,0.6,0.7,1.8,0.7,1.8s0.2,1.5,0.2,3C24.7,15.3,24.7,16.7,24.7,16.7z"/>
</svg>
